<?xml version="1.0" encoding="UTF-8"?>
<svg id="a" data-name="Layer 1" xmlns="http://www.w3.org/2000/svg" viewBox="-20 -20 773 773">
  <path class="b" d="M413.41,298.45c0-25.86-21.04-46.91-46.91-46.91s-46.91,21.04-46.91,46.91,21.04,46.91,46.91,46.91,46.91-21.04,46.91-46.91Z"/>
  <path class="b" d="M704.19,223.84c-18.46-43.64-44.88-82.84-78.54-116.49-33.65-33.65-72.85-60.08-116.49-78.54C463.97,9.69,415.97,0,366.5,0s-97.47,9.69-142.66,28.81c-43.64,18.46-82.84,44.88-116.49,78.54-33.65,33.65-60.08,72.85-78.54,116.49C9.69,269.03,0,317.03,0,366.5s9.69,97.47,28.81,142.66c18.46,43.64,44.88,82.84,78.54,116.49,33.65,33.65,72.85,60.08,116.49,78.54,45.19,19.12,93.19,28.81,142.66,28.81s97.47-9.69,142.66-28.81c43.64-18.46,82.84-44.88,116.49-78.54,33.65-33.65,60.08-72.85,78.54-116.49,19.12-45.19,28.81-93.19,28.81-142.66s-9.69-97.47-28.81-142.66ZM38.67,427.83c30.79,9.45,97.14,35.23,153.37,93.97,57.92,60.51,88.51,124.15,108.76,171.69-132.74-26.62-237.24-132.3-262.13-265.66ZM350.78,699.61c-4-.19-7.98-.44-11.94-.76-19.91-47.98-53.14-126.93-122.95-199.86-31.56-32.97-69.39-60.21-112.43-80.97-31.84-15.36-57.86-22.85-69.47-25.75-.65-8.5-.99-17.09-.99-25.75,0-46.46,9.56-90.72,26.8-130.94,51.59,16.38,121.83,49.19,184.68,114.59,26.35,27.41,46.82,55.88,62.75,83.26l-.05.03c.85,1.41,1.69,2.82,2.51,4.23,3.17,5.59,6.14,11.12,8.94,16.59,26.71,53.7,31.49,105.02,32.11,128.9,0,1.1,0,2.2,0,3.3-.02,2.08-.02,3.9,0,5.46,0,15.71.01,31.5.02,47.05.02,20.7.03,41.1.02,60.63ZM347.93,439.11c-2.98-5.97-6.2-11.96-9.68-17.95-17.46-30.77-40.25-62.94-69.98-93.88-65.67-68.34-138.85-103.59-193.82-121.67C131.33,102.79,240.91,33,366.5,33s235.5,70,292.3,173.07c-54.81,18.22-127.31,53.45-192.43,121.22-23.37,24.32-40.83,48.46-47.26,57.72-7.08,10.19-13.73,20.65-19.97,31.35h0c-5.44,8.97-10.26,17.96-14.55,26.88-6.32,12.64-12.08,25.59-17.27,38.8-5.37-13.63-11.76-28.03-19.39-42.92ZM434.59,693c20.26-47.48,50.83-110.9,108.56-171.2,54.85-57.3,119.32-83.23,151.04-93.24-24.98,132.21-128.23,237.09-259.59,264.45ZM698.96,392.83c-12.51,3.26-37.3,10.74-67.23,25.18-43.04,20.76-80.87,48-112.43,80.97-69.71,72.83-102.95,151.67-122.87,199.66-4.2.38-8.42.7-12.66.91.01-19.52,0-39.91-.02-60.6-.01-15.51-.02-31.24-.02-46.91h.07c.03-2.07.03-4.64-.03-7.66.48-22.78,4.78-73.09,30.29-126.31,9.41-18.82,20.14-36.95,32.16-54.26,5.97-8.6,22.21-31.05,43.94-53.67,62.27-64.79,131.79-97.61,183.24-114.13,17.11,40.1,26.6,84.2,26.6,130.48,0,8.86-.36,17.64-1.04,26.33Z"/>
</svg>